# xmcd
#
# Track frame offsets: 
#        150
#        35354
#        116367
#
# Disc length: 2910 seconds
#
# Revision: 0
# Processed by: cddbd v1.5.2PL0 Copyright (c) Steve Scherf et al.
# Submitted via: ExactAudioCopyFreeDBPlugin 1.0
#
DISCID=1a0b5c03
DTITLE=黃德森、楊焯光、周剛 - 黃德森瞽師留下的七分鐘
DYEAR=2009
DGENRE=南音
TTITLE0=黃德森 - 廉頗救主
TTITLE1=楊焯光 - 男燒衣
TTITLE2=周剛 - 浪子平生最怕情
EXTD=
EXTT0=
EXTT1=
EXTT2=
PLAYORDER=
